<?xml version="1.0" encoding="UTF-8"?>
<svg xmlns="http://www.w3.org/2000/svg" viewBox="0 0 1505 1176" width="1505" height="1176">
  <title>Image Services — Level 2 Services</title>
  <desc>AI-First Business Service Architecture. Enterprise &gt; Presentation Engineering &gt; Image Services &gt; Level 2</desc>
<defs>
  <linearGradient id="aiGrad" x1="0%" y1="0%" x2="100%" y2="100%">
    <stop offset="0%" style="stop-color:#7C3AED;stop-opacity:1" />
    <stop offset="100%" style="stop-color:#6B21A8;stop-opacity:1" />
  </linearGradient>
  <filter id="aiGlow" x="-15%" y="-15%" width="130%" height="140%">
    <feGaussianBlur in="SourceAlpha" stdDeviation="5"/>
    <feOffset dx="0" dy="3" result="offsetblur"/>
    <feComponentTransfer>
      <feFuncA type="linear" slope="0.2"/>
    </feComponentTransfer>
    <feMerge>
      <feMergeNode/>
      <feMergeNode in="SourceGraphic"/>
    </feMerge>
  </filter>
  <filter id="shadow" x="-5%" y="-5%" width="115%" height="120%">
    <feGaussianBlur in="SourceAlpha" stdDeviation="2"/>
    <feOffset dx="1" dy="2" result="offsetblur"/>
    <feComponentTransfer>
      <feFuncA type="linear" slope="0.12"/>
    </feComponentTransfer>
    <feMerge>
      <feMergeNode/>
      <feMergeNode in="SourceGraphic"/>
    </feMerge>
  </filter>
  <marker id="arr-capability_invocation" viewBox="0 0 10 10" refX="10" refY="5"
      markerWidth="8" markerHeight="8" orient="auto-start-reverse">
    <path d="M 0 0 L 10 5 L 0 10 Z" fill="#2C5282"/>
  </marker>
  <marker id="arr-data_flow" viewBox="0 0 10 10" refX="10" refY="5"
      markerWidth="8" markerHeight="8" orient="auto-start-reverse">
    <path d="M 0 1 L 10 5 L 0 9" fill="none" stroke="#059669" stroke-width="1.5"/>
  </marker>
  <marker id="arr-escalation" viewBox="0 0 10 10" refX="10" refY="5"
      markerWidth="9" markerHeight="9" orient="auto-start-reverse">
    <path d="M 0 0 L 10 5 L 0 10 Z" fill="#DC2626"/>
  </marker>
  <marker id="arr-external" viewBox="0 0 10 10" refX="10" refY="5"
      markerWidth="7" markerHeight="7" orient="auto-start-reverse">
    <path d="M 0 0 L 10 5 L 0 10 Z" fill="#94A3B8"/>
  </marker>
  <marker id="arr-approval" viewBox="0 0 10 10" refX="10" refY="5"
      markerWidth="8" markerHeight="8" orient="auto-start-reverse">
    <path d="M 0 0 L 10 5 L 0 10 Z" fill="#2C5282"/>
  </marker>
</defs>
  <rect width="1505" height="1176" fill="#FAFBFC"/>
  <text x="60" y="78" font-family="Inter, 'Segoe UI', -apple-system, BlinkMacSystemFont, sans-serif" font-size="20" font-weight="700" fill="#1A202C">Image Services — Level 2 Services</text>
  <text x="60" y="96" font-family="Inter, 'Segoe UI', -apple-system, BlinkMacSystemFont, sans-serif" font-size="11" font-weight="500" fill="#64748B" letter-spacing="0.3">Enterprise &gt; Presentation Engineering &gt; Image Services &gt; Level 2</text>
  <!-- Interactions -->
<g class="interaction" data-id="int-bridge-discovery">
  <path d="M 572.4,605.4 C 588.2,585.9 597.6,573.4 604.7,562.2" fill="none" stroke="#2C5282" stroke-width="1.8" marker-end="url(#arr-capability_invocation)"/>
</g>
<g class="interaction" data-id="int-bridge-discovery-openai">
  <path d="M 571.1,701.1 C 600.7,737.9 615.3,755.8 628.9,771.3" fill="none" stroke="#2C5282" stroke-width="1.8" marker-end="url(#arr-capability_invocation)"/>
</g>
<g class="interaction" data-id="int-bridge-discovery-google">
  <path d="M 530.0,701.3 C 529.0,718.1 528.2,730.0 527.3,739.7" fill="none" stroke="#2C5282" stroke-width="1.8" marker-end="url(#arr-capability_invocation)"/>
</g>
<g class="interaction" data-id="int-bridge-discovery-fal">
  <path d="M 468.1,701.0 C 430.3,728.6 411.4,741.4 391.7,752.0" fill="none" stroke="#2C5282" stroke-width="1.8" marker-end="url(#arr-capability_invocation)"/>
</g>
<g class="interaction" data-id="int-bridge-discovery-recraft">
  <path d="M 435.1,617.8 C 414.9,610.0 401.6,604.2 389.4,597.8" fill="none" stroke="#2C5282" stroke-width="1.8" marker-end="url(#arr-capability_invocation)"/>
</g>
<g class="interaction" data-id="int-bridge-to-ollama-skills">
  <path d="M 630.4,658.2 C 662.1,659.6 685.2,660.5 704.1,660.7" fill="none" stroke="#2C5282" stroke-width="1.8" marker-end="url(#arr-capability_invocation)"/>
</g>
<g class="interaction" data-id="int-bridge-to-cloud-skills">
  <path d="M 524.1,701.0 C 506.3,799.2 499.6,834.5 491.2,869.6" fill="none" stroke="#2C5282" stroke-width="1.8" marker-end="url(#arr-capability_invocation)"/>
</g>
<g class="interaction" data-id="int-ollama-skills-to-ollama">
  <path d="M 782.4,605.7 C 760.7,577.0 738.8,564.2 674.3,536.1" fill="none" stroke="#2C5282" stroke-width="1.8" marker-end="url(#arr-capability_invocation)"/>
</g>
<g class="interaction" data-id="int-cloud-skills-to-openai">
  <path d="M 573.8,903.0 C 591.2,892.5 607.1,876.3 630.8,848.5" fill="none" stroke="#2C5282" stroke-width="1.8" marker-end="url(#arr-capability_invocation)"/>
</g>
<g class="interaction" data-id="int-cloud-skills-to-google">
  <path d="M 495.8,880.9 C 499.0,870.9 502.5,858.5 507.3,840.4" fill="none" stroke="#2C5282" stroke-width="1.8" marker-end="url(#arr-capability_invocation)"/>
</g>
<g class="interaction" data-id="int-cloud-skills-to-fal">
  <path d="M 398.8,880.7 C 387.0,867.6 377.7,850.3 365.3,822.0" fill="none" stroke="#2C5282" stroke-width="1.8" marker-end="url(#arr-capability_invocation)"/>
</g>
<g class="interaction" data-id="int-cloud-icon-to-recraft">
  <path d="M 194.6,660.5 C 214.8,639.4 238.8,625.2 299.1,594.5" fill="none" stroke="#2C5282" stroke-width="1.8" marker-end="url(#arr-capability_invocation)"/>
</g>
<g class="interaction" data-id="int-cloud-icon-to-fal">
  <path d="M 234.6,756.3 C 249.3,760.3 267.7,763.5 293.9,767.3" fill="none" stroke="#2C5282" stroke-width="1.8" marker-end="url(#arr-capability_invocation)"/>
</g>
<g class="interaction" data-id="int-chart-to-matplotlib">
  <path d="M 1065.2,328.1 C 1081.5,330.5 1093.4,332.2 1104.0,333.9" fill="none" stroke="#2C5282" stroke-width="1.8" marker-end="url(#arr-capability_invocation)"/>
</g>
<g class="interaction" data-id="int-gen-skills-to-expert">
  <path d="M 840.4,701.3 C 866.0,747.3 876.8,771.0 879.7,797.0" fill="none" stroke="#2C5282" stroke-width="1.8" marker-end="url(#arr-capability_invocation)"/>
</g>
<g class="interaction" data-id="int-cloud-skills-to-expert">
  <path d="M 573.9,945.7 C 660.2,959.6 702.8,960.5 751.7,941.6" fill="none" stroke="#2C5282" stroke-width="1.8" marker-end="url(#arr-capability_invocation)"/>
</g>
<g class="interaction" data-id="int-bridge-to-expert">
  <path d="M 603.9,701.3 C 678.4,751.5 721.6,780.5 755.2,802.0" fill="none" stroke="#2C5282" stroke-width="1.8" marker-end="url(#arr-capability_invocation)"/>
</g>
  <!-- Services -->
<g class="service" data-id="image-routing-discovery" filter="url(#shadow)">
  <rect x="435.28" y="605.8399999999999" width="195" height="95" rx="8" fill="#F8F9FA" stroke="#2C5282" stroke-width="2"/>
  <rect x="435.28" y="605.8399999999999" width="195" height="30" rx="8" fill="#4A90E2"/>
  <rect x="435.28" y="627.8399999999999" width="195" height="8" fill="#4A90E2"/>
  <text x="532.78" y="621.8399999999999" text-anchor="middle" dominant-baseline="central" font-family="Inter, 'Segoe UI', -apple-system, BlinkMacSystemFont, sans-serif" font-size="13" font-weight="600" fill="#FFFFFF">Image Routing &amp; Discovery</text>
  <text x="443.28" y="649.8399999999999" font-family="Inter, 'Segoe UI', -apple-system, BlinkMacSystemFont, sans-serif" font-size="10" fill="#475569">Entry point for all image</text>
  <text x="443.28" y="663.8399999999999" font-family="Inter, 'Segoe UI', -apple-system, BlinkMacSystemFont, sans-serif" font-size="10" fill="#475569">generation. Discovers available</text>
  <text x="443.28" y="677.8399999999999" font-family="Inter, 'Segoe UI', -apple-system, BlinkMacSystemFont, sans-serif" font-size="10" fill="#475569">providers at runtime, routes to</text>
</g>
<g class="service" data-id="image-ollama-generate" filter="url(#shadow)">
  <rect x="715.8" y="605.9200000000001" width="195" height="95" rx="8" fill="#F8F9FA" stroke="#2C5282" stroke-width="2"/>
  <rect x="715.8" y="605.9200000000001" width="195" height="30" rx="8" fill="#4A90E2"/>
  <rect x="715.8" y="627.9200000000001" width="195" height="8" fill="#4A90E2"/>
  <text x="813.3" y="621.9200000000001" text-anchor="middle" dominant-baseline="central" font-family="Inter, 'Segoe UI', -apple-system, BlinkMacSystemFont, sans-serif" font-size="13" font-weight="600" fill="#FFFFFF">Ollama Image Generation</text>
  <text x="723.8" y="649.9200000000001" font-family="Inter, 'Segoe UI', -apple-system, BlinkMacSystemFont, sans-serif" font-size="10" fill="#475569">Generate raster images via</text>
  <text x="723.8" y="663.9200000000001" font-family="Inter, 'Segoe UI', -apple-system, BlinkMacSystemFont, sans-serif" font-size="10" fill="#475569">local Ollama models</text>
  <text x="723.8" y="677.9200000000001" font-family="Inter, 'Segoe UI', -apple-system, BlinkMacSystemFont, sans-serif" font-size="10" fill="#475569">(z-image-turbo, flux2-klein).</text>
</g>
<g class="service" data-id="image-ollama-icon" filter="url(#shadow)">
  <rect x="728.96" y="422.69" width="195" height="95" rx="8" fill="#F8F9FA" stroke="#2C5282" stroke-width="2"/>
  <rect x="728.96" y="422.69" width="195" height="30" rx="8" fill="#4A90E2"/>
  <rect x="728.96" y="444.69" width="195" height="8" fill="#4A90E2"/>
  <text x="826.46" y="438.69" text-anchor="middle" dominant-baseline="central" font-family="Inter, 'Segoe UI', -apple-system, BlinkMacSystemFont, sans-serif" font-size="13" font-weight="600" fill="#FFFFFF">Ollama Icon Generation</text>
  <text x="736.96" y="466.69" font-family="Inter, 'Segoe UI', -apple-system, BlinkMacSystemFont, sans-serif" font-size="10" fill="#475569">Generate icon and pictogram</text>
  <text x="736.96" y="480.69" font-family="Inter, 'Segoe UI', -apple-system, BlinkMacSystemFont, sans-serif" font-size="10" fill="#475569">images via Ollama with</text>
  <text x="736.96" y="494.69" font-family="Inter, 'Segoe UI', -apple-system, BlinkMacSystemFont, sans-serif" font-size="10" fill="#475569">icon-specific prompt wrapping.</text>
</g>
<g class="service" data-id="image-ollama-pattern" filter="url(#shadow)">
  <rect x="301.73" y="347.9" width="195" height="95" rx="8" fill="#F8F9FA" stroke="#2C5282" stroke-width="2"/>
  <rect x="301.73" y="347.9" width="195" height="30" rx="8" fill="#4A90E2"/>
  <rect x="301.73" y="369.9" width="195" height="8" fill="#4A90E2"/>
  <text x="399.23" y="363.9" text-anchor="middle" dominant-baseline="central" font-family="Inter, 'Segoe UI', -apple-system, BlinkMacSystemFont, sans-serif" font-size="13" font-weight="600" fill="#FFFFFF">Ollama Pattern Generation</text>
  <text x="309.73" y="391.9" font-family="Inter, 'Segoe UI', -apple-system, BlinkMacSystemFont, sans-serif" font-size="10" fill="#475569">Generate seamless textures and</text>
  <text x="309.73" y="405.9" font-family="Inter, 'Segoe UI', -apple-system, BlinkMacSystemFont, sans-serif" font-size="10" fill="#475569">repeating patterns via Ollama.</text>
</g>
<g class="service" data-id="image-ollama-diagram" filter="url(#shadow)">
  <rect x="546.98" y="277.59000000000003" width="195" height="95" rx="8" fill="#F8F9FA" stroke="#2C5282" stroke-width="2"/>
  <rect x="546.98" y="277.59000000000003" width="195" height="30" rx="8" fill="#4A90E2"/>
  <rect x="546.98" y="299.59000000000003" width="195" height="8" fill="#4A90E2"/>
  <text x="644.48" y="293.59000000000003" text-anchor="middle" dominant-baseline="central" font-family="Inter, 'Segoe UI', -apple-system, BlinkMacSystemFont, sans-serif" font-size="13" font-weight="600" fill="#FFFFFF">Ollama Diagram Generation</text>
  <text x="554.98" y="321.59000000000003" font-family="Inter, 'Segoe UI', -apple-system, BlinkMacSystemFont, sans-serif" font-size="10" fill="#475569">Generate illustrative diagrams</text>
  <text x="554.98" y="335.59000000000003" font-family="Inter, 'Segoe UI', -apple-system, BlinkMacSystemFont, sans-serif" font-size="10" fill="#475569">via Ollama. Honest about text</text>
  <text x="554.98" y="349.59000000000003" font-family="Inter, 'Segoe UI', -apple-system, BlinkMacSystemFont, sans-serif" font-size="10" fill="#475569">quality limitations — use for</text>
</g>
<g class="service" data-id="image-cloud-generate" filter="url(#shadow)">
  <rect x="378.45" y="881.002" width="195" height="95" rx="8" fill="#F8F9FA" stroke="#2C5282" stroke-width="2"/>
  <rect x="378.45" y="881.002" width="195" height="30" rx="8" fill="#4A90E2"/>
  <rect x="378.45" y="903.002" width="195" height="8" fill="#4A90E2"/>
  <text x="475.95" y="897.002" text-anchor="middle" dominant-baseline="central" font-family="Inter, 'Segoe UI', -apple-system, BlinkMacSystemFont, sans-serif" font-size="13" font-weight="600" fill="#FFFFFF">Cloud Image Generation</text>
  <text x="386.45" y="925.002" font-family="Inter, 'Segoe UI', -apple-system, BlinkMacSystemFont, sans-serif" font-size="10" fill="#475569">Generate images via cloud APIs</text>
  <text x="386.45" y="939.002" font-family="Inter, 'Segoe UI', -apple-system, BlinkMacSystemFont, sans-serif" font-size="10" fill="#475569">(OpenAI GPT Image 1.5, Google</text>
  <text x="386.45" y="953.002" font-family="Inter, 'Segoe UI', -apple-system, BlinkMacSystemFont, sans-serif" font-size="10" fill="#475569">Imagen 4, FLUX.2 Pro) with</text>
</g>
<g class="service" data-id="image-cloud-icon" filter="url(#shadow)">
  <rect x="59.998999999999995" y="660.8299999999999" width="195" height="95" rx="8" fill="#F8F9FA" stroke="#2C5282" stroke-width="2"/>
  <rect x="59.998999999999995" y="660.8299999999999" width="195" height="30" rx="8" fill="#4A90E2"/>
  <rect x="59.998999999999995" y="682.8299999999999" width="195" height="8" fill="#4A90E2"/>
  <text x="157.499" y="676.8299999999999" text-anchor="middle" dominant-baseline="central" font-family="Inter, 'Segoe UI', -apple-system, BlinkMacSystemFont, sans-serif" font-size="13" font-weight="600" fill="#FFFFFF">Cloud Icon Generation</text>
  <text x="67.999" y="704.8299999999999" font-family="Inter, 'Segoe UI', -apple-system, BlinkMacSystemFont, sans-serif" font-size="10" fill="#475569">Generate SVG icons via Recraft</text>
  <text x="67.999" y="718.8299999999999" font-family="Inter, 'Segoe UI', -apple-system, BlinkMacSystemFont, sans-serif" font-size="10" fill="#475569">V4 or raster icons via cloud</text>
  <text x="67.999" y="732.8299999999999" font-family="Inter, 'Segoe UI', -apple-system, BlinkMacSystemFont, sans-serif" font-size="10" fill="#475569">models. SVG output is preferred</text>
</g>
<g class="service" data-id="image-chart-renderer" filter="url(#shadow)">
  <rect x="870.0" y="266.46000000000004" width="195" height="95" rx="8" fill="#F8F9FA" stroke="#2C5282" stroke-width="2"/>
  <rect x="870.0" y="266.46000000000004" width="195" height="30" rx="8" fill="#4A90E2"/>
  <rect x="870.0" y="288.46000000000004" width="195" height="8" fill="#4A90E2"/>
  <text x="967.5" y="282.46000000000004" text-anchor="middle" dominant-baseline="central" font-family="Inter, 'Segoe UI', -apple-system, BlinkMacSystemFont, sans-serif" font-size="13" font-weight="600" fill="#FFFFFF">Chart Rendering</text>
  <text x="878.0" y="310.46000000000004" font-family="Inter, 'Segoe UI', -apple-system, BlinkMacSystemFont, sans-serif" font-size="10" fill="#475569">Generate publication-quality</text>
  <text x="878.0" y="324.46000000000004" font-family="Inter, 'Segoe UI', -apple-system, BlinkMacSystemFont, sans-serif" font-size="10" fill="#475569">data visualisations via</text>
  <text x="878.0" y="338.46000000000004" font-family="Inter, 'Segoe UI', -apple-system, BlinkMacSystemFont, sans-serif" font-size="10" fill="#475569">Matplotlib and Seaborn at 300</text>
</g>
<g class="service" data-id="image-post-processing" filter="url(#shadow)">
  <rect x="276.0" y="125.0" width="195" height="95" rx="8" fill="#F8F9FA" stroke="#2C5282" stroke-width="2"/>
  <rect x="276.0" y="125.0" width="195" height="30" rx="8" fill="#4A90E2"/>
  <rect x="276.0" y="147.0" width="195" height="8" fill="#4A90E2"/>
  <text x="373.5" y="141.0" text-anchor="middle" dominant-baseline="central" font-family="Inter, 'Segoe UI', -apple-system, BlinkMacSystemFont, sans-serif" font-size="13" font-weight="600" fill="#FFFFFF">Image Post-Processing</text>
  <text x="284.0" y="169.0" font-family="Inter, 'Segoe UI', -apple-system, BlinkMacSystemFont, sans-serif" font-size="10" fill="#475569">Background removal (rembg),</text>
  <text x="284.0" y="183.0" font-family="Inter, 'Segoe UI', -apple-system, BlinkMacSystemFont, sans-serif" font-size="10" fill="#475569">resize, crop, colour</text>
  <text x="284.0" y="197.0" font-family="Inter, 'Segoe UI', -apple-system, BlinkMacSystemFont, sans-serif" font-size="10" fill="#475569">correction, and file</text>
</g>
<g class="ai-persona" data-id="image-generation-expert" filter="url(#aiGlow)">
  <rect x="762.71" y="808.5699999999999" width="225" height="130" rx="10" fill="#F3E8FF" stroke="#6B21A8" stroke-width="2.5"/>
  <rect x="762.71" y="808.5699999999999" width="225" height="34" rx="10" fill="url(#aiGrad)"/>
  <rect x="762.71" y="832.5699999999999" width="225" height="10" fill="url(#aiGrad)"/>
  <line x1="784.71" y1="813.3" x2="784.71" y2="817.9" stroke="#F3E8FF" stroke-width="1.5"/>
<circle cx="784.71" cy="813.3" r="2.5" fill="#F3E8FF"/>
<rect x="775.7" y="817.9" width="18.0" height="15.3" rx="3.6" fill="none" stroke="#F3E8FF" stroke-width="1.5"/>
<circle cx="780.8" cy="823.7" r="2.2" fill="#F3E8FF"/>
<circle cx="788.7" cy="823.7" r="2.2" fill="#F3E8FF"/>
<line x1="780.8" y1="828.6" x2="788.7" y2="828.6" stroke="#F3E8FF" stroke-width="1.5" stroke-linecap="round"/>
  <text x="896.21" y="826.5699999999999" text-anchor="middle" dominant-baseline="central" font-family="Inter, 'Segoe UI', -apple-system, BlinkMacSystemFont, sans-serif" font-size="14" font-weight="700" fill="#FFFFFF">Image Generation Expert</text>
  <text x="875.21" y="858.5699999999999" text-anchor="middle" font-family="Inter, 'Segoe UI', -apple-system, BlinkMacSystemFont, sans-serif" font-size="9" font-weight="600" fill="#7C3AED" letter-spacing="1.5">AI PERSONA</text>
  <text x="875.21" y="872.5699999999999" text-anchor="middle" font-family="Inter, 'Segoe UI', -apple-system, BlinkMacSystemFont, sans-serif" font-size="8" font-weight="500" fill="#64748B">Authority: INVOKER</text>
  <text x="770.71" y="884.5699999999999" font-family="Inter, 'Segoe UI', -apple-system, BlinkMacSystemFont, sans-serif" font-size="9" fill="#475569">Advisory AI Persona for prompt</text>
  <text x="770.71" y="896.5699999999999" font-family="Inter, 'Segoe UI', -apple-system, BlinkMacSystemFont, sans-serif" font-size="9" fill="#475569">engineering, model-specific translation,</text>
  <text x="770.71" y="908.5699999999999" font-family="Inter, 'Segoe UI', -apple-system, BlinkMacSystemFont, sans-serif" font-size="9" fill="#475569">image quality scoring, and iteration</text>
</g>
  <!-- Human Actors -->
  <!-- System Actors -->
<g class="system-actor" data-id="sys-ollama">
  <rect x="613.7" y="493.6" width="26.6" height="32.3" rx="3" fill="none" stroke="#0C4A6E" stroke-width="1.5"/>
<line x1="613.7" y1="504.4" x2="640.3" y2="504.4" stroke="#0C4A6E" stroke-width="1.1"/>
<line x1="613.7" y1="515.1" x2="640.3" y2="515.1" stroke="#0C4A6E" stroke-width="1.1"/>
<circle cx="620.3" cy="499.0" r="1.9000000000000001" fill="#0C4A6E"/>
<circle cx="625.7" cy="499.0" r="1.9000000000000001" fill="#0C4A6E"/>
<circle cx="620.3" cy="509.8" r="1.9000000000000001" fill="#0C4A6E"/>
<circle cx="625.7" cy="509.8" r="1.9000000000000001" fill="#0C4A6E"/>
  <text x="626.98" y="539.76" text-anchor="middle" font-family="Inter, 'Segoe UI', -apple-system, BlinkMacSystemFont, sans-serif" font-size="10" font-weight="500" fill="#1A202C">Ollama</text>
</g>
<g class="system-actor" data-id="sys-openai">
  <rect x="650.3" y="787.0" width="26.6" height="32.3" rx="3" fill="none" stroke="#0C4A6E" stroke-width="1.5"/>
<line x1="650.3" y1="797.8" x2="676.9" y2="797.8" stroke="#0C4A6E" stroke-width="1.1"/>
<line x1="650.3" y1="808.5" x2="676.9" y2="808.5" stroke="#0C4A6E" stroke-width="1.1"/>
<circle cx="657.0" cy="792.4" r="1.9000000000000001" fill="#0C4A6E"/>
<circle cx="662.3" cy="792.4" r="1.9000000000000001" fill="#0C4A6E"/>
<circle cx="657.0" cy="803.1" r="1.9000000000000001" fill="#0C4A6E"/>
<circle cx="662.3" cy="803.1" r="1.9000000000000001" fill="#0C4A6E"/>
  <text x="663.63" y="833.15" text-anchor="middle" font-family="Inter, 'Segoe UI', -apple-system, BlinkMacSystemFont, sans-serif" font-size="10" font-weight="500" fill="#1A202C">OpenAI API</text>
</g>
<g class="system-actor" data-id="sys-google-vertex">
  <rect x="506.9" y="768.8" width="26.6" height="32.3" rx="3" fill="none" stroke="#0C4A6E" stroke-width="1.5"/>
<line x1="506.9" y1="779.6" x2="533.5" y2="779.6" stroke="#0C4A6E" stroke-width="1.1"/>
<line x1="506.9" y1="790.3" x2="533.5" y2="790.3" stroke="#0C4A6E" stroke-width="1.1"/>
<circle cx="513.5" cy="774.2" r="1.9000000000000001" fill="#0C4A6E"/>
<circle cx="518.8" cy="774.2" r="1.9000000000000001" fill="#0C4A6E"/>
<circle cx="513.5" cy="784.9" r="1.9000000000000001" fill="#0C4A6E"/>
<circle cx="518.8" cy="784.9" r="1.9000000000000001" fill="#0C4A6E"/>
  <text x="520.1700000000001" y="814.94" text-anchor="middle" font-family="Inter, 'Segoe UI', -apple-system, BlinkMacSystemFont, sans-serif" font-size="10" font-weight="500" fill="#1A202C">Google Vertex AI</text>
</g>
<g class="system-actor" data-id="sys-fal">
  <rect x="331.8" y="752.2" width="26.6" height="32.3" rx="3" fill="none" stroke="#0C4A6E" stroke-width="1.5"/>
<line x1="331.8" y1="763.0" x2="358.4" y2="763.0" stroke="#0C4A6E" stroke-width="1.1"/>
<line x1="331.8" y1="773.8" x2="358.4" y2="773.8" stroke="#0C4A6E" stroke-width="1.1"/>
<circle cx="338.5" cy="757.6" r="1.9000000000000001" fill="#0C4A6E"/>
<circle cx="343.8" cy="757.6" r="1.9000000000000001" fill="#0C4A6E"/>
<circle cx="338.5" cy="768.4" r="1.9000000000000001" fill="#0C4A6E"/>
<circle cx="343.8" cy="768.4" r="1.9000000000000001" fill="#0C4A6E"/>
  <text x="345.13" y="798.39" text-anchor="middle" font-family="Inter, 'Segoe UI', -apple-system, BlinkMacSystemFont, sans-serif" font-size="10" font-weight="500" fill="#1A202C">FAL.ai</text>
</g>
<g class="system-actor" data-id="sys-recraft">
  <rect x="331.8" y="549.0" width="26.6" height="32.3" rx="3" fill="none" stroke="#0C4A6E" stroke-width="1.5"/>
<line x1="331.8" y1="559.7" x2="358.4" y2="559.7" stroke="#0C4A6E" stroke-width="1.1"/>
<line x1="331.8" y1="570.5" x2="358.4" y2="570.5" stroke="#0C4A6E" stroke-width="1.1"/>
<circle cx="338.4" cy="554.3" r="1.9000000000000001" fill="#0C4A6E"/>
<circle cx="343.8" cy="554.3" r="1.9000000000000001" fill="#0C4A6E"/>
<circle cx="338.4" cy="565.1" r="1.9000000000000001" fill="#0C4A6E"/>
<circle cx="343.8" cy="565.1" r="1.9000000000000001" fill="#0C4A6E"/>
  <text x="345.1" y="595.11" text-anchor="middle" font-family="Inter, 'Segoe UI', -apple-system, BlinkMacSystemFont, sans-serif" font-size="10" font-weight="500" fill="#1A202C">Recraft API</text>
</g>
<g class="system-actor" data-id="sys-matplotlib">
  <rect x="1141.9" y="319.9" width="26.6" height="32.3" rx="3" fill="none" stroke="#0C4A6E" stroke-width="1.5"/>
<line x1="1141.9" y1="330.6" x2="1168.5" y2="330.6" stroke="#0C4A6E" stroke-width="1.1"/>
<line x1="1141.9" y1="341.4" x2="1168.5" y2="341.4" stroke="#0C4A6E" stroke-width="1.1"/>
<circle cx="1148.6" cy="325.2" r="1.9000000000000001" fill="#0C4A6E"/>
<circle cx="1153.9" cy="325.2" r="1.9000000000000001" fill="#0C4A6E"/>
<circle cx="1148.6" cy="336.0" r="1.9000000000000001" fill="#0C4A6E"/>
<circle cx="1153.9" cy="336.0" r="1.9000000000000001" fill="#0C4A6E"/>
  <text x="1155.2" y="366.0" text-anchor="middle" font-family="Inter, 'Segoe UI', -apple-system, BlinkMacSystemFont, sans-serif" font-size="10" font-weight="500" fill="#1A202C">Matplotlib</text>
</g>
  <!-- External Services -->
<g class="legend" transform="translate(1135,1026)">
  <rect x="0" y="0" width="340" height="130" rx="8" fill="white" stroke="#E5E7EB" stroke-width="1"/>
  <text x="12" y="18" font-family="Inter, 'Segoe UI', -apple-system, BlinkMacSystemFont, sans-serif" font-size="11" font-weight="700" fill="#1A202C">Legend</text>
  <rect x="12" y="36" width="16" height="11" rx="3" fill="#F8F9FA" stroke="#2C5282" stroke-width="1.5"/>
  <text x="34" y="45" font-family="Inter, 'Segoe UI', -apple-system, BlinkMacSystemFont, sans-serif" font-size="9" fill="#475569">Business Service</text>
  <rect x="12" y="54" width="16" height="11" rx="3" fill="#F3E8FF" stroke="#6B21A8" stroke-width="1.5"/>
  <text x="34" y="63" font-family="Inter, 'Segoe UI', -apple-system, BlinkMacSystemFont, sans-serif" font-size="9" fill="#475569">AI Persona</text>
  <circle cx="20" cy="75" r="3" fill="none" stroke="#92400E" stroke-width="1"/>
  <line x1="20" y1="78" x2="20" y2="84" stroke="#92400E" stroke-width="1"/>
  <text x="34" y="81" font-family="Inter, 'Segoe UI', -apple-system, BlinkMacSystemFont, sans-serif" font-size="9" fill="#475569">Human Actor</text>
  <rect x="14" y="90" width="12" height="10" rx="1.5" fill="none" stroke="#0C4A6E" stroke-width="1"/>
  <text x="34" y="99" font-family="Inter, 'Segoe UI', -apple-system, BlinkMacSystemFont, sans-serif" font-size="9" fill="#475569">System</text>
  <rect x="12" y="108" width="16" height="11" rx="3" fill="white" stroke="#94A3B8" stroke-width="1" stroke-dasharray="3,2"/>
  <text x="34" y="117" font-family="Inter, 'Segoe UI', -apple-system, BlinkMacSystemFont, sans-serif" font-size="9" fill="#475569">External Service</text>
  <line x1="165" y1="41" x2="187" y2="41" stroke="#2C5282" stroke-width="2"/>
  <path d="M 183 38 L 187 41 L 183 44" fill="none" stroke="#2C5282" stroke-width="1.2"/>
  <text x="193" y="45" font-family="Inter, 'Segoe UI', -apple-system, BlinkMacSystemFont, sans-serif" font-size="9" fill="#475569">Invocation</text>
  <line x1="165" y1="59" x2="187" y2="59" stroke="#059669" stroke-width="2"/>
  <path d="M 183 56 L 187 59 L 183 62" fill="none" stroke="#059669" stroke-width="1.2"/>
  <text x="193" y="63" font-family="Inter, 'Segoe UI', -apple-system, BlinkMacSystemFont, sans-serif" font-size="9" fill="#475569">Data Flow</text>
  <line x1="165" y1="77" x2="187" y2="77" stroke="#DC2626" stroke-width="2" stroke-dasharray="5,3"/>
  <path d="M 183 74 L 187 77 L 183 80" fill="none" stroke="#DC2626" stroke-width="1.2"/>
  <text x="193" y="81" font-family="Inter, 'Segoe UI', -apple-system, BlinkMacSystemFont, sans-serif" font-size="9" fill="#475569">Escalation</text>
  <line x1="165" y1="95" x2="187" y2="95" stroke="#15803D" stroke-width="2" stroke-dasharray="2,3"/>
  <path d="M 183 92 L 187 95 L 183 98" fill="none" stroke="#15803D" stroke-width="1.2"/>
  <text x="193" y="99" font-family="Inter, 'Segoe UI', -apple-system, BlinkMacSystemFont, sans-serif" font-size="9" fill="#475569">Support</text>
  <line x1="165" y1="113" x2="187" y2="113" stroke="#94A3B8" stroke-width="2" stroke-dasharray="4,3"/>
  <path d="M 183 110 L 187 113 L 183 116" fill="none" stroke="#94A3B8" stroke-width="1.2"/>
  <text x="193" y="117" font-family="Inter, 'Segoe UI', -apple-system, BlinkMacSystemFont, sans-serif" font-size="9" fill="#475569">External</text>
</g>
</svg>