<?xml version="1.0" encoding="UTF-8"?>
<svg xmlns="http://www.w3.org/2000/svg" viewBox="0 0 1766 1543" width="1766" height="1543">
  <title>Image Services — Level 2 Services</title>
  <desc>AI-First Business Service Architecture. Enterprise &gt; Presentation Engineering &gt; Image Services &gt; Level 2</desc>
<defs>
  <linearGradient id="aiGrad" x1="0%" y1="0%" x2="100%" y2="100%">
    <stop offset="0%" style="stop-color:#7C3AED;stop-opacity:1" />
    <stop offset="100%" style="stop-color:#6B21A8;stop-opacity:1" />
  </linearGradient>
  <filter id="aiGlow" x="-15%" y="-15%" width="130%" height="140%">
    <feGaussianBlur in="SourceAlpha" stdDeviation="5"/>
    <feOffset dx="0" dy="3" result="offsetblur"/>
    <feComponentTransfer>
      <feFuncA type="linear" slope="0.2"/>
    </feComponentTransfer>
    <feMerge>
      <feMergeNode/>
      <feMergeNode in="SourceGraphic"/>
    </feMerge>
  </filter>
  <filter id="shadow" x="-5%" y="-5%" width="115%" height="120%">
    <feGaussianBlur in="SourceAlpha" stdDeviation="2"/>
    <feOffset dx="1" dy="2" result="offsetblur"/>
    <feComponentTransfer>
      <feFuncA type="linear" slope="0.12"/>
    </feComponentTransfer>
    <feMerge>
      <feMergeNode/>
      <feMergeNode in="SourceGraphic"/>
    </feMerge>
  </filter>
  <marker id="arr-capability_invocation" viewBox="0 0 10 10" refX="10" refY="5"
      markerWidth="8" markerHeight="8" orient="auto-start-reverse">
    <path d="M 0 0 L 10 5 L 0 10 Z" fill="#2C5282"/>
  </marker>
  <marker id="arr-data_flow" viewBox="0 0 10 10" refX="10" refY="5"
      markerWidth="8" markerHeight="8" orient="auto-start-reverse">
    <path d="M 0 1 L 10 5 L 0 9" fill="none" stroke="#059669" stroke-width="1.5"/>
  </marker>
  <marker id="arr-escalation" viewBox="0 0 10 10" refX="10" refY="5"
      markerWidth="9" markerHeight="9" orient="auto-start-reverse">
    <path d="M 0 0 L 10 5 L 0 10 Z" fill="#DC2626"/>
  </marker>
  <marker id="arr-external" viewBox="0 0 10 10" refX="10" refY="5"
      markerWidth="7" markerHeight="7" orient="auto-start-reverse">
    <path d="M 0 0 L 10 5 L 0 10 Z" fill="#94A3B8"/>
  </marker>
  <marker id="arr-approval" viewBox="0 0 10 10" refX="10" refY="5"
      markerWidth="8" markerHeight="8" orient="auto-start-reverse">
    <path d="M 0 0 L 10 5 L 0 10 Z" fill="#2C5282"/>
  </marker>
</defs>
  <rect width="1766" height="1543" fill="#FAFBFC"/>
  <text x="60" y="78" font-family="Inter, 'Segoe UI', -apple-system, BlinkMacSystemFont, sans-serif" font-size="20" font-weight="700" fill="#1A202C">Image Services — Level 2 Services</text>
  <text x="60" y="96" font-family="Inter, 'Segoe UI', -apple-system, BlinkMacSystemFont, sans-serif" font-size="11" font-weight="500" fill="#64748B" letter-spacing="0.3">Enterprise &gt; Presentation Engineering &gt; Image Services &gt; Level 2</text>
  <!-- Interactions -->
<g class="interaction" data-id="int-bridge-discovery">
  <path d="M 624.8,581.2 C 665.3,543.0 684.0,527.2 706.0,514.4" fill="none" stroke="#2C5282" stroke-width="1.8" marker-end="url(#arr-capability_invocation)"/>
</g>
<g class="interaction" data-id="int-bridge-discovery-openai">
  <path d="M 567.7,581.2 C 565.0,562.8 562.9,550.2 560.6,540.1" fill="none" stroke="#2C5282" stroke-width="1.8" marker-end="url(#arr-capability_invocation)"/>
</g>
<g class="interaction" data-id="int-bridge-discovery-google">
  <path d="M 476.7,587.7 C 462.9,584.1 451.3,583.2 437.8,584.5" fill="none" stroke="#2C5282" stroke-width="1.8" marker-end="url(#arr-capability_invocation)"/>
</g>
<g class="interaction" data-id="int-bridge-discovery-fal">
  <path d="M 476.8,652.0 C 413.4,668.7 391.1,682.5 357.2,721.2" fill="none" stroke="#2C5282" stroke-width="1.8" marker-end="url(#arr-capability_invocation)"/>
</g>
<g class="interaction" data-id="int-bridge-discovery-recraft">
  <path d="M 530.6,676.9 C 443.1,772.7 425.3,797.9 409.4,861.5" fill="none" stroke="#2C5282" stroke-width="1.8" marker-end="url(#arr-capability_invocation)"/>
</g>
<g class="interaction" data-id="int-bridge-to-ollama-skills">
  <path d="M 672.3,623.5 C 707.0,622.0 731.5,622.0 751.7,624.2" fill="none" stroke="#2C5282" stroke-width="1.8" marker-end="url(#arr-capability_invocation)"/>
</g>
<g class="interaction" data-id="int-bridge-to-cloud-skills">
  <path d="M 566.1,676.7 C 564.2,686.4 561.8,698.1 558.2,715.0" fill="none" stroke="#2C5282" stroke-width="1.8" marker-end="url(#arr-capability_invocation)"/>
</g>
<g class="interaction" data-id="int-ollama-skills-to-ollama">
  <path d="M 851.5,616.7 C 841.0,568.1 831.1,551.4 793.7,522.2" fill="none" stroke="#2C5282" stroke-width="1.8" marker-end="url(#arr-capability_invocation)"/>
</g>
<g class="interaction" data-id="int-cloud-skills-to-openai">
  <path d="M 545.0,726.3 C 543.5,616.5 543.1,583.1 543.4,543.1" fill="none" stroke="#2C5282" stroke-width="1.8" marker-end="url(#arr-capability_invocation)"/>
</g>
<g class="interaction" data-id="int-cloud-skills-to-google">
  <path d="M 498.9,726.3 C 452.0,678.3 433.5,658.3 416.5,635.8" fill="none" stroke="#2C5282" stroke-width="1.8" marker-end="url(#arr-capability_invocation)"/>
</g>
<g class="interaction" data-id="int-cloud-skills-to-fal">
  <path d="M 447.9,774.4 C 413.4,774.1 393.9,773.1 375.1,770.6" fill="none" stroke="#2C5282" stroke-width="1.8" marker-end="url(#arr-capability_invocation)"/>
</g>
<g class="interaction" data-id="int-cloud-icon-to-recraft">
  <path d="M 308.3,952.3 C 320.1,947.3 334.1,941.0 351.5,933.1" fill="none" stroke="#2C5282" stroke-width="1.8" marker-end="url(#arr-capability_invocation)"/>
</g>
<g class="interaction" data-id="int-cloud-icon-to-fal">
  <path d="M 217.9,929.1 C 226.0,889.2 239.8,867.5 292.3,801.1" fill="none" stroke="#2C5282" stroke-width="1.8" marker-end="url(#arr-capability_invocation)"/>
</g>
<g class="interaction" data-id="int-chart-to-matplotlib">
  <path d="M 316.2,1137.4 C 332.5,1139.8 344.4,1141.5 355.0,1143.2" fill="none" stroke="#2C5282" stroke-width="1.8" marker-end="url(#arr-capability_invocation)"/>
</g>
<g class="interaction" data-id="int-gen-skills-to-expert">
  <path d="M 847.0,712.2 C 815.7,818.7 798.2,851.7 714.2,909.4" fill="none" stroke="#2C5282" stroke-width="1.8" marker-end="url(#arr-capability_invocation)"/>
</g>
<g class="interaction" data-id="int-cloud-skills-to-expert">
  <path d="M 557.5,821.9 C 567.2,861.2 573.4,886.0 578.4,904.9" fill="none" stroke="#2C5282" stroke-width="1.8" marker-end="url(#arr-capability_invocation)"/>
</g>
<g class="interaction" data-id="int-bridge-to-expert">
  <path d="M 585.5,676.9 C 615.6,809.8 623.4,852.3 616.5,905.0" fill="none" stroke="#2C5282" stroke-width="1.8" marker-end="url(#arr-capability_invocation)"/>
</g>
<g class="interaction" data-id="int-composer-to-prompt-engineer">
  <path d="M 1231.3,200.4 C 1243.8,202.5 1256.7,204.6 1269.5,206.4" fill="none" stroke="#2C5282" stroke-width="1.8" marker-end="url(#arr-capability_invocation)"/>
</g>
<g class="interaction" data-id="int-prompt-engineer-to-composer">
  <path d="M 1280.6,194.4 C 1267.9,192.5 1254.9,190.6 1242.3,188.7" fill="none" stroke="#2C5282" stroke-width="1.8" marker-end="url(#arr-capability_invocation)"/>
</g>
<g class="interaction" data-id="int-keynote-to-ollama">
  <path d="M 880.5,794.4 C 889.9,766.0 890.8,749.4 883.0,723.4" fill="none" stroke="#2C5282" stroke-width="1.8" marker-end="url(#arr-capability_invocation)"/>
</g>
<g class="interaction" data-id="int-keynote-to-cloud">
  <path d="M 764.9,828.9 C 738.5,823.7 706.9,816.0 654.7,802.6" fill="none" stroke="#2C5282" stroke-width="1.8" marker-end="url(#arr-capability_invocation)"/>
</g>
<g class="interaction" data-id="int-keynote-to-expert">
  <path d="M 823.9,889.8 C 791.6,927.7 769.6,944.1 724.8,956.8" fill="none" stroke="#2C5282" stroke-width="1.8" marker-end="url(#arr-capability_invocation)"/>
</g>
<g class="interaction" data-id="int-keynote-to-vision-analysis">
  <path d="M 874.6,890.1 C 900.4,993.3 904.1,1023.2 885.5,1076.3" fill="none" stroke="#2C5282" stroke-width="1.8" marker-end="url(#arr-capability_invocation)"/>
</g>
<g class="interaction" data-id="int-vision-analysis-to-claude">
  <path d="M 880.9,1182.5 C 887.6,1199.9 891.8,1212.0 894.6,1222.1" fill="none" stroke="#2C5282" stroke-width="1.8" marker-end="url(#arr-capability_invocation)"/>
</g>
<g class="interaction" data-id="int-vision-analysis-to-expert">
  <path d="M 764.2,1102.2 C 744.7,1091.8 723.5,1077.0 692.7,1053.4" fill="none" stroke="#2C5282" stroke-width="1.8" marker-end="url(#arr-capability_invocation)"/>
</g>
<g class="interaction" data-id="int-composer-element-briefs">
  <path d="M 1231.3,200.4 C 1243.8,202.5 1256.7,204.6 1269.5,206.4" fill="none" stroke="#2C5282" stroke-width="1.8" marker-end="url(#arr-capability_invocation)"/>
</g>
<g class="interaction" data-id="int-keynote-multi-image">
  <path d="M 830.8,794.3 C 795.5,744.1 769.8,723.6 682.9,680.7" fill="none" stroke="#2C5282" stroke-width="1.8" marker-end="url(#arr-capability_invocation)"/>
</g>
<g class="interaction" data-id="int-imagegen-bridge-to-image-reviewer">
  <path d="M 476.7,616.7 C 422.4,607.6 354.3,595.1 296.3,583.5" fill="none" stroke="#2C5282" stroke-width="1.8" marker-end="url(#arr-capability_invocation)"/>
</g>
<g class="interaction" data-id="int-image-reviewer-to-imagegen-bridge">
  <path d="M 285.4,568.9 C 341.8,578.5 409.9,591.2 465.8,602.5" fill="none" stroke="#2C5282" stroke-width="1.8" marker-end="url(#arr-capability_invocation)"/>
</g>
<g class="interaction" data-id="int-renderer-to-imagegen-bridge">
  <path d="M 402.1,407.9 C 441.8,454.0 498.4,523.8 535.9,572.6" fill="none" stroke="#2C5282" stroke-width="1.8" marker-end="url(#arr-capability_invocation)"/>
</g>
<g class="interaction" data-id="int-imagegen-bridge-to-renderer">
  <path d="M 528.8,581.2 C 489.2,535.1 432.5,465.4 395.1,416.6" fill="none" stroke="#2C5282" stroke-width="1.8" marker-end="url(#arr-capability_invocation)"/>
</g>
<g class="interaction" data-id="int-renderer-to-image-reviewer">
  <path d="M 267.3,408.1 C 233.9,428.8 217.8,446.4 202.5,478.2" fill="none" stroke="#2C5282" stroke-width="1.8" marker-end="url(#arr-capability_invocation)"/>
</g>
<g class="interaction" data-id="int-smartart-to-mermaid">
  <path d="M 357.1,312.2 C 357.6,293.3 358.4,280.7 360.3,270.3" fill="none" stroke="#2C5282" stroke-width="1.8" marker-end="url(#arr-capability_invocation)"/>
</g>
<g class="interaction" data-id="int-smartart-to-vega">
  <path d="M 258.6,318.8 C 243.7,314.1 231.9,312.3 219.0,312.3" fill="none" stroke="#2C5282" stroke-width="1.8" marker-end="url(#arr-capability_invocation)"/>
</g>
  <!-- Services -->
<g class="service" data-id="image-routing-discovery" filter="url(#shadow)">
  <rect x="477.08000000000004" y="581.52" width="195" height="95" rx="8" fill="#F8F9FA" stroke="#2C5282" stroke-width="2"/>
  <rect x="477.08000000000004" y="581.52" width="195" height="30" rx="8" fill="#4A90E2"/>
  <rect x="477.08000000000004" y="603.52" width="195" height="8" fill="#4A90E2"/>
  <text x="574.58" y="597.52" text-anchor="middle" dominant-baseline="central" font-family="Inter, 'Segoe UI', -apple-system, BlinkMacSystemFont, sans-serif" font-size="13" font-weight="600" fill="#FFFFFF">Image Routing &amp; Discovery</text>
  <text x="485.08000000000004" y="625.52" font-family="Inter, 'Segoe UI', -apple-system, BlinkMacSystemFont, sans-serif" font-size="10" fill="#475569">Entry point for all image</text>
  <text x="485.08000000000004" y="639.52" font-family="Inter, 'Segoe UI', -apple-system, BlinkMacSystemFont, sans-serif" font-size="10" fill="#475569">generation. Discovers available</text>
  <text x="485.08000000000004" y="653.52" font-family="Inter, 'Segoe UI', -apple-system, BlinkMacSystemFont, sans-serif" font-size="10" fill="#475569">providers at runtime, routes to</text>
</g>
<g class="service" data-id="image-ollama-generate" filter="url(#shadow)">
  <rect x="763.23" y="617.0899999999999" width="195" height="95" rx="8" fill="#F8F9FA" stroke="#2C5282" stroke-width="2"/>
  <rect x="763.23" y="617.0899999999999" width="195" height="30" rx="8" fill="#4A90E2"/>
  <rect x="763.23" y="639.0899999999999" width="195" height="8" fill="#4A90E2"/>
  <text x="860.73" y="633.0899999999999" text-anchor="middle" dominant-baseline="central" font-family="Inter, 'Segoe UI', -apple-system, BlinkMacSystemFont, sans-serif" font-size="13" font-weight="600" fill="#FFFFFF">Ollama Image Generation</text>
  <text x="771.23" y="661.0899999999999" font-family="Inter, 'Segoe UI', -apple-system, BlinkMacSystemFont, sans-serif" font-size="10" fill="#475569">Generate raster images via</text>
  <text x="771.23" y="675.0899999999999" font-family="Inter, 'Segoe UI', -apple-system, BlinkMacSystemFont, sans-serif" font-size="10" fill="#475569">local Ollama models</text>
  <text x="771.23" y="689.0899999999999" font-family="Inter, 'Segoe UI', -apple-system, BlinkMacSystemFont, sans-serif" font-size="10" fill="#475569">(z-image-turbo, flux2-klein).</text>
</g>
<g class="service" data-id="image-ollama-icon" filter="url(#shadow)">
  <rect x="842.34" y="456.9" width="195" height="95" rx="8" fill="#F8F9FA" stroke="#2C5282" stroke-width="2"/>
  <rect x="842.34" y="456.9" width="195" height="30" rx="8" fill="#4A90E2"/>
  <rect x="842.34" y="478.9" width="195" height="8" fill="#4A90E2"/>
  <text x="939.84" y="472.9" text-anchor="middle" dominant-baseline="central" font-family="Inter, 'Segoe UI', -apple-system, BlinkMacSystemFont, sans-serif" font-size="13" font-weight="600" fill="#FFFFFF">Ollama Icon Generation</text>
  <text x="850.34" y="500.9" font-family="Inter, 'Segoe UI', -apple-system, BlinkMacSystemFont, sans-serif" font-size="10" fill="#475569">Generate icon and pictogram</text>
  <text x="850.34" y="514.9" font-family="Inter, 'Segoe UI', -apple-system, BlinkMacSystemFont, sans-serif" font-size="10" fill="#475569">images via Ollama with</text>
  <text x="850.34" y="528.9" font-family="Inter, 'Segoe UI', -apple-system, BlinkMacSystemFont, sans-serif" font-size="10" fill="#475569">icon-specific prompt wrapping.</text>
</g>
<g class="service" data-id="image-ollama-pattern" filter="url(#shadow)">
  <rect x="522.08" y="261.5" width="195" height="95" rx="8" fill="#F8F9FA" stroke="#2C5282" stroke-width="2"/>
  <rect x="522.08" y="261.5" width="195" height="30" rx="8" fill="#4A90E2"/>
  <rect x="522.08" y="283.5" width="195" height="8" fill="#4A90E2"/>
  <text x="619.58" y="277.5" text-anchor="middle" dominant-baseline="central" font-family="Inter, 'Segoe UI', -apple-system, BlinkMacSystemFont, sans-serif" font-size="13" font-weight="600" fill="#FFFFFF">Ollama Pattern Generation</text>
  <text x="530.08" y="305.5" font-family="Inter, 'Segoe UI', -apple-system, BlinkMacSystemFont, sans-serif" font-size="10" fill="#475569">Generate seamless textures and</text>
  <text x="530.08" y="319.5" font-family="Inter, 'Segoe UI', -apple-system, BlinkMacSystemFont, sans-serif" font-size="10" fill="#475569">repeating patterns via Ollama.</text>
</g>
<g class="service" data-id="image-ollama-diagram" filter="url(#shadow)">
  <rect x="770.82" y="306.2299999999999" width="195" height="95" rx="8" fill="#F8F9FA" stroke="#2C5282" stroke-width="2"/>
  <rect x="770.82" y="306.2299999999999" width="195" height="30" rx="8" fill="#4A90E2"/>
  <rect x="770.82" y="328.2299999999999" width="195" height="8" fill="#4A90E2"/>
  <text x="868.32" y="322.2299999999999" text-anchor="middle" dominant-baseline="central" font-family="Inter, 'Segoe UI', -apple-system, BlinkMacSystemFont, sans-serif" font-size="13" font-weight="600" fill="#FFFFFF">Ollama Diagram Generation</text>
  <text x="778.82" y="350.2299999999999" font-family="Inter, 'Segoe UI', -apple-system, BlinkMacSystemFont, sans-serif" font-size="10" fill="#475569">Generate illustrative diagrams</text>
  <text x="778.82" y="364.2299999999999" font-family="Inter, 'Segoe UI', -apple-system, BlinkMacSystemFont, sans-serif" font-size="10" fill="#475569">via Ollama. Honest about text</text>
  <text x="778.82" y="378.2299999999999" font-family="Inter, 'Segoe UI', -apple-system, BlinkMacSystemFont, sans-serif" font-size="10" fill="#475569">quality limitations — use for</text>
</g>
<g class="service" data-id="image-cloud-generate" filter="url(#shadow)">
  <rect x="448.19000000000005" y="726.5799999999999" width="195" height="95" rx="8" fill="#F8F9FA" stroke="#2C5282" stroke-width="2"/>
  <rect x="448.19000000000005" y="726.5799999999999" width="195" height="30" rx="8" fill="#4A90E2"/>
  <rect x="448.19000000000005" y="748.5799999999999" width="195" height="8" fill="#4A90E2"/>
  <text x="545.69" y="742.5799999999999" text-anchor="middle" dominant-baseline="central" font-family="Inter, 'Segoe UI', -apple-system, BlinkMacSystemFont, sans-serif" font-size="13" font-weight="600" fill="#FFFFFF">Cloud Image Generation</text>
  <text x="456.19000000000005" y="770.5799999999999" font-family="Inter, 'Segoe UI', -apple-system, BlinkMacSystemFont, sans-serif" font-size="10" fill="#475569">Generate images via cloud APIs</text>
  <text x="456.19000000000005" y="784.5799999999999" font-family="Inter, 'Segoe UI', -apple-system, BlinkMacSystemFont, sans-serif" font-size="10" fill="#475569">(OpenAI GPT Image 1.5, Google</text>
  <text x="456.19000000000005" y="798.5799999999999" font-family="Inter, 'Segoe UI', -apple-system, BlinkMacSystemFont, sans-serif" font-size="10" fill="#475569">Imagen 4, FLUX.2 Pro) with</text>
</g>
<g class="service" data-id="image-cloud-icon" filter="url(#shadow)">
  <rect x="113.1" y="929.3299999999999" width="195" height="95" rx="8" fill="#F8F9FA" stroke="#2C5282" stroke-width="2"/>
  <rect x="113.1" y="929.3299999999999" width="195" height="30" rx="8" fill="#4A90E2"/>
  <rect x="113.1" y="951.3299999999999" width="195" height="8" fill="#4A90E2"/>
  <text x="210.6" y="945.3299999999999" text-anchor="middle" dominant-baseline="central" font-family="Inter, 'Segoe UI', -apple-system, BlinkMacSystemFont, sans-serif" font-size="13" font-weight="600" fill="#FFFFFF">Cloud Icon Generation</text>
  <text x="121.1" y="973.3299999999999" font-family="Inter, 'Segoe UI', -apple-system, BlinkMacSystemFont, sans-serif" font-size="10" fill="#475569">Generate SVG icons via Recraft</text>
  <text x="121.1" y="987.3299999999999" font-family="Inter, 'Segoe UI', -apple-system, BlinkMacSystemFont, sans-serif" font-size="10" fill="#475569">V4 or raster icons via cloud</text>
  <text x="121.1" y="1001.3299999999999" font-family="Inter, 'Segoe UI', -apple-system, BlinkMacSystemFont, sans-serif" font-size="10" fill="#475569">models. SVG output is preferred</text>
</g>
<g class="service" data-id="image-chart-renderer" filter="url(#shadow)">
  <rect x="121.0" y="1075.76" width="195" height="95" rx="8" fill="#F8F9FA" stroke="#2C5282" stroke-width="2"/>
  <rect x="121.0" y="1075.76" width="195" height="30" rx="8" fill="#4A90E2"/>
  <rect x="121.0" y="1097.76" width="195" height="8" fill="#4A90E2"/>
  <text x="218.5" y="1091.76" text-anchor="middle" dominant-baseline="central" font-family="Inter, 'Segoe UI', -apple-system, BlinkMacSystemFont, sans-serif" font-size="13" font-weight="600" fill="#FFFFFF">Chart Rendering</text>
  <text x="129.0" y="1119.76" font-family="Inter, 'Segoe UI', -apple-system, BlinkMacSystemFont, sans-serif" font-size="10" fill="#475569">Generate publication-quality</text>
  <text x="129.0" y="1133.76" font-family="Inter, 'Segoe UI', -apple-system, BlinkMacSystemFont, sans-serif" font-size="10" fill="#475569">data visualisations via</text>
  <text x="129.0" y="1147.76" font-family="Inter, 'Segoe UI', -apple-system, BlinkMacSystemFont, sans-serif" font-size="10" fill="#475569">Matplotlib and Seaborn at 300</text>
</g>
<g class="service" data-id="image-post-processing" filter="url(#shadow)">
  <rect x="1097.0" y="1218.302" width="195" height="95" rx="8" fill="#F8F9FA" stroke="#2C5282" stroke-width="2"/>
  <rect x="1097.0" y="1218.302" width="195" height="30" rx="8" fill="#4A90E2"/>
  <rect x="1097.0" y="1240.302" width="195" height="8" fill="#4A90E2"/>
  <text x="1194.5" y="1234.302" text-anchor="middle" dominant-baseline="central" font-family="Inter, 'Segoe UI', -apple-system, BlinkMacSystemFont, sans-serif" font-size="13" font-weight="600" fill="#FFFFFF">Image Post-Processing</text>
  <text x="1105.0" y="1262.302" font-family="Inter, 'Segoe UI', -apple-system, BlinkMacSystemFont, sans-serif" font-size="10" fill="#475569">Background removal (rembg),</text>
  <text x="1105.0" y="1276.302" font-family="Inter, 'Segoe UI', -apple-system, BlinkMacSystemFont, sans-serif" font-size="10" fill="#475569">resize, crop, colour</text>
  <text x="1105.0" y="1290.302" font-family="Inter, 'Segoe UI', -apple-system, BlinkMacSystemFont, sans-serif" font-size="10" fill="#475569">correction, and file</text>
</g>
<g class="service" data-id="image-slide-prompt-composition" filter="url(#shadow)">
  <rect x="1036.0" y="125.0" width="195" height="95" rx="8" fill="#F8F9FA" stroke="#2C5282" stroke-width="2"/>
  <rect x="1036.0" y="125.0" width="195" height="30" rx="8" fill="#4A90E2"/>
  <rect x="1036.0" y="147.0" width="195" height="8" fill="#4A90E2"/>
  <text x="1133.5" y="141.0" text-anchor="middle" dominant-baseline="central" font-family="Inter, 'Segoe UI', -apple-system, BlinkMacSystemFont, sans-serif" font-size="13" font-weight="600" fill="#FFFFFF">Slide Prompt Composition</text>
  <text x="1044.0" y="169.0" font-family="Inter, 'Segoe UI', -apple-system, BlinkMacSystemFont, sans-serif" font-size="10" fill="#475569">Assemble structured briefs from</text>
  <text x="1044.0" y="183.0" font-family="Inter, 'Segoe UI', -apple-system, BlinkMacSystemFont, sans-serif" font-size="10" fill="#475569">SlideOutline, StyleGuide,</text>
  <text x="1044.0" y="197.0" font-family="Inter, 'Segoe UI', -apple-system, BlinkMacSystemFont, sans-serif" font-size="10" fill="#475569">BrandProfile, and StrategyMap</text>
</g>
<g class="ai-persona" data-id="image-prompt-engineer" filter="url(#aiGlow)">
  <rect x="1281.0" y="146.29999999999995" width="225" height="130" rx="10" fill="#F3E8FF" stroke="#6B21A8" stroke-width="2.5"/>
  <rect x="1281.0" y="146.29999999999995" width="225" height="34" rx="10" fill="url(#aiGrad)"/>
  <rect x="1281.0" y="170.29999999999995" width="225" height="10" fill="url(#aiGrad)"/>
  <line x1="1303.0" y1="151.1" x2="1303.0" y2="155.6" stroke="#F3E8FF" stroke-width="1.5"/>
<circle cx="1303.0" cy="151.1" r="2.5" fill="#F3E8FF"/>
<rect x="1294.0" y="155.6" width="18.0" height="15.3" rx="3.6" fill="none" stroke="#F3E8FF" stroke-width="1.5"/>
<circle cx="1299.0" cy="161.5" r="2.2" fill="#F3E8FF"/>
<circle cx="1307.0" cy="161.5" r="2.2" fill="#F3E8FF"/>
<line x1="1299.0" y1="166.4" x2="1307.0" y2="166.4" stroke="#F3E8FF" stroke-width="1.5" stroke-linecap="round"/>
  <text x="1414.5" y="164.29999999999995" text-anchor="middle" dominant-baseline="central" font-family="Inter, 'Segoe UI', -apple-system, BlinkMacSystemFont, sans-serif" font-size="14" font-weight="700" fill="#FFFFFF">Prompt Engineer</text>
  <text x="1393.5" y="196.29999999999995" text-anchor="middle" font-family="Inter, 'Segoe UI', -apple-system, BlinkMacSystemFont, sans-serif" font-size="9" font-weight="600" fill="#7C3AED" letter-spacing="1.5">AI PERSONA</text>
  <text x="1393.5" y="210.29999999999995" text-anchor="middle" font-family="Inter, 'Segoe UI', -apple-system, BlinkMacSystemFont, sans-serif" font-size="8" font-weight="500" fill="#64748B">Authority: INVOKER</text>
  <text x="1289.0" y="222.29999999999995" font-family="Inter, 'Segoe UI', -apple-system, BlinkMacSystemFont, sans-serif" font-size="9" fill="#475569">AI Persona that receives structured</text>
  <text x="1289.0" y="234.29999999999995" font-family="Inter, 'Segoe UI', -apple-system, BlinkMacSystemFont, sans-serif" font-size="9" fill="#475569">briefs and produces creative image</text>
  <text x="1289.0" y="246.29999999999995" font-family="Inter, 'Segoe UI', -apple-system, BlinkMacSystemFont, sans-serif" font-size="9" fill="#475569">generation prompts. Composes spatial</text>
</g>
<g class="service" data-id="image-keynote-rendering" filter="url(#shadow)">
  <rect x="765.01" y="794.6899999999999" width="195" height="95" rx="8" fill="#F8F9FA" stroke="#2C5282" stroke-width="2"/>
  <rect x="765.01" y="794.6899999999999" width="195" height="30" rx="8" fill="#4A90E2"/>
  <rect x="765.01" y="816.6899999999999" width="195" height="8" fill="#4A90E2"/>
  <text x="862.51" y="810.6899999999999" text-anchor="middle" dominant-baseline="central" font-family="Inter, 'Segoe UI', -apple-system, BlinkMacSystemFont, sans-serif" font-size="13" font-weight="600" fill="#FFFFFF">Keynote Rendering</text>
  <text x="773.01" y="838.6899999999999" font-family="Inter, 'Segoe UI', -apple-system, BlinkMacSystemFont, sans-serif" font-size="10" fill="#475569">Three-stage render funnel for</text>
  <text x="773.01" y="852.6899999999999" font-family="Inter, 'Segoe UI', -apple-system, BlinkMacSystemFont, sans-serif" font-size="10" fill="#475569">keynote-quality slide images.</text>
  <text x="773.01" y="866.6899999999999" font-family="Inter, 'Segoe UI', -apple-system, BlinkMacSystemFont, sans-serif" font-size="10" fill="#475569">Stage 1: Ollama draft (free,</text>
</g>
<g class="ai-persona" data-id="image-generation-expert" filter="url(#aiGlow)">
  <rect x="488.9" y="916.1999999999999" width="225" height="130" rx="10" fill="#F3E8FF" stroke="#6B21A8" stroke-width="2.5"/>
  <rect x="488.9" y="916.1999999999999" width="225" height="34" rx="10" fill="url(#aiGrad)"/>
  <rect x="488.9" y="940.1999999999999" width="225" height="10" fill="url(#aiGrad)"/>
  <line x1="510.9" y1="921.0" x2="510.9" y2="925.5" stroke="#F3E8FF" stroke-width="1.5"/>
<circle cx="510.9" cy="921.0" r="2.5" fill="#F3E8FF"/>
<rect x="501.9" y="925.5" width="18.0" height="15.3" rx="3.6" fill="none" stroke="#F3E8FF" stroke-width="1.5"/>
<circle cx="506.9" cy="931.4" r="2.2" fill="#F3E8FF"/>
<circle cx="514.9" cy="931.4" r="2.2" fill="#F3E8FF"/>
<line x1="506.9" y1="936.3" x2="514.9" y2="936.3" stroke="#F3E8FF" stroke-width="1.5" stroke-linecap="round"/>
  <text x="622.4" y="934.1999999999999" text-anchor="middle" dominant-baseline="central" font-family="Inter, 'Segoe UI', -apple-system, BlinkMacSystemFont, sans-serif" font-size="14" font-weight="700" fill="#FFFFFF">Image Generation Expert</text>
  <text x="601.4" y="966.1999999999999" text-anchor="middle" font-family="Inter, 'Segoe UI', -apple-system, BlinkMacSystemFont, sans-serif" font-size="9" font-weight="600" fill="#7C3AED" letter-spacing="1.5">AI PERSONA</text>
  <text x="601.4" y="980.1999999999999" text-anchor="middle" font-family="Inter, 'Segoe UI', -apple-system, BlinkMacSystemFont, sans-serif" font-size="8" font-weight="500" fill="#64748B">Authority: INVOKER</text>
  <text x="496.9" y="992.1999999999999" font-family="Inter, 'Segoe UI', -apple-system, BlinkMacSystemFont, sans-serif" font-size="9" fill="#475569">Advisory AI Persona for prompt</text>
  <text x="496.9" y="1004.1999999999999" font-family="Inter, 'Segoe UI', -apple-system, BlinkMacSystemFont, sans-serif" font-size="9" fill="#475569">engineering, model-specific translation,</text>
  <text x="496.9" y="1016.1999999999999" font-family="Inter, 'Segoe UI', -apple-system, BlinkMacSystemFont, sans-serif" font-size="9" fill="#475569">image quality scoring, iteration</text>
</g>
<g class="service" data-id="image-vision-analysis" filter="url(#shadow)">
  <rect x="764.68" y="1087.03" width="195" height="95" rx="8" fill="#F8F9FA" stroke="#2C5282" stroke-width="2"/>
  <rect x="764.68" y="1087.03" width="195" height="30" rx="8" fill="#4A90E2"/>
  <rect x="764.68" y="1109.03" width="195" height="8" fill="#4A90E2"/>
  <text x="862.18" y="1103.03" text-anchor="middle" dominant-baseline="central" font-family="Inter, 'Segoe UI', -apple-system, BlinkMacSystemFont, sans-serif" font-size="13" font-weight="600" fill="#FFFFFF">Vision Analysis</text>
  <text x="772.68" y="1131.03" font-family="Inter, 'Segoe UI', -apple-system, BlinkMacSystemFont, sans-serif" font-size="10" fill="#475569">Post-generation vision analysis</text>
  <text x="772.68" y="1145.03" font-family="Inter, 'Segoe UI', -apple-system, BlinkMacSystemFont, sans-serif" font-size="10" fill="#475569">for backdrop strategy slides.</text>
  <text x="772.68" y="1159.03" font-family="Inter, 'Segoe UI', -apple-system, BlinkMacSystemFont, sans-serif" font-size="10" fill="#475569">Uses Claude vision to analyse</text>
</g>
<g class="ai-persona" data-id="image-image-reviewer" filter="url(#aiGlow)">
  <rect x="60.0" y="489.03999999999996" width="225" height="130" rx="10" fill="#F3E8FF" stroke="#6B21A8" stroke-width="2.5"/>
  <rect x="60.0" y="489.03999999999996" width="225" height="34" rx="10" fill="url(#aiGrad)"/>
  <rect x="60.0" y="513.04" width="225" height="10" fill="url(#aiGrad)"/>
  <line x1="82.0" y1="493.8" x2="82.0" y2="498.4" stroke="#F3E8FF" stroke-width="1.5"/>
<circle cx="82.0" cy="493.8" r="2.5" fill="#F3E8FF"/>
<rect x="73.0" y="498.4" width="18.0" height="15.3" rx="3.6" fill="none" stroke="#F3E8FF" stroke-width="1.5"/>
<circle cx="78.0" cy="504.2" r="2.2" fill="#F3E8FF"/>
<circle cx="86.0" cy="504.2" r="2.2" fill="#F3E8FF"/>
<line x1="78.0" y1="509.1" x2="86.0" y2="509.1" stroke="#F3E8FF" stroke-width="1.5" stroke-linecap="round"/>
  <text x="193.5" y="507.03999999999996" text-anchor="middle" dominant-baseline="central" font-family="Inter, 'Segoe UI', -apple-system, BlinkMacSystemFont, sans-serif" font-size="14" font-weight="700" fill="#FFFFFF">Image Reviewer</text>
  <text x="172.5" y="539.04" text-anchor="middle" font-family="Inter, 'Segoe UI', -apple-system, BlinkMacSystemFont, sans-serif" font-size="9" font-weight="600" fill="#7C3AED" letter-spacing="1.5">AI PERSONA</text>
  <text x="172.5" y="553.04" text-anchor="middle" font-family="Inter, 'Segoe UI', -apple-system, BlinkMacSystemFont, sans-serif" font-size="8" font-weight="500" fill="#64748B">Authority: INVOKER</text>
  <text x="68.0" y="565.04" font-family="Inter, 'Segoe UI', -apple-system, BlinkMacSystemFont, sans-serif" font-size="9" fill="#475569">Visual quality assessment for</text>
  <text x="68.0" y="577.04" font-family="Inter, 'Segoe UI', -apple-system, BlinkMacSystemFont, sans-serif" font-size="9" fill="#475569">AI-generated presentation images.</text>
  <text x="68.0" y="589.04" font-family="Inter, 'Segoe UI', -apple-system, BlinkMacSystemFont, sans-serif" font-size="9" fill="#475569">Dispatched per image after generation to</text>
</g>
<g class="service" data-id="image-smartart-rendering" filter="url(#shadow)">
  <rect x="258.87" y="312.62" width="195" height="95" rx="8" fill="#F8F9FA" stroke="#2C5282" stroke-width="2"/>
  <rect x="258.87" y="312.62" width="195" height="30" rx="8" fill="#4A90E2"/>
  <rect x="258.87" y="334.62" width="195" height="8" fill="#4A90E2"/>
  <text x="356.37" y="328.62" text-anchor="middle" dominant-baseline="central" font-family="Inter, 'Segoe UI', -apple-system, BlinkMacSystemFont, sans-serif" font-size="13" font-weight="600" fill="#FFFFFF">SmartArt Rendering</text>
  <text x="266.87" y="356.62" font-family="Inter, 'Segoe UI', -apple-system, BlinkMacSystemFont, sans-serif" font-size="10" fill="#475569">Render SmartArtSpec data</text>
  <text x="266.87" y="370.62" font-family="Inter, 'Segoe UI', -apple-system, BlinkMacSystemFont, sans-serif" font-size="10" fill="#475569">through three engines</text>
  <text x="266.87" y="384.62" font-family="Inter, 'Segoe UI', -apple-system, BlinkMacSystemFont, sans-serif" font-size="10" fill="#475569">(Mermaid.js via CLI, Vega-Lite</text>
</g>
  <!-- Human Actors -->
  <!-- System Actors -->
<g class="system-actor" data-id="sys-ollama">
  <rect x="738.9" y="469.2" width="26.6" height="32.3" rx="3" fill="none" stroke="#0C4A6E" stroke-width="1.5"/>
<line x1="738.9" y1="480.0" x2="765.5" y2="480.0" stroke="#0C4A6E" stroke-width="1.1"/>
<line x1="738.9" y1="490.7" x2="765.5" y2="490.7" stroke="#0C4A6E" stroke-width="1.1"/>
<circle cx="745.5" cy="474.6" r="1.9000000000000001" fill="#0C4A6E"/>
<circle cx="750.8" cy="474.6" r="1.9000000000000001" fill="#0C4A6E"/>
<circle cx="745.5" cy="485.3" r="1.9000000000000001" fill="#0C4A6E"/>
<circle cx="750.8" cy="485.3" r="1.9000000000000001" fill="#0C4A6E"/>
  <text x="752.16" y="515.3499999999999" text-anchor="middle" font-family="Inter, 'Segoe UI', -apple-system, BlinkMacSystemFont, sans-serif" font-size="10" font-weight="500" fill="#1A202C">Ollama</text>
</g>
<g class="system-actor" data-id="sys-openai">
  <rect x="530.6" y="469.3" width="26.6" height="32.3" rx="3" fill="none" stroke="#0C4A6E" stroke-width="1.5"/>
<line x1="530.6" y1="480.0" x2="557.2" y2="480.0" stroke="#0C4A6E" stroke-width="1.1"/>
<line x1="530.6" y1="490.8" x2="557.2" y2="490.8" stroke="#0C4A6E" stroke-width="1.1"/>
<circle cx="537.2" cy="474.7" r="1.9000000000000001" fill="#0C4A6E"/>
<circle cx="542.6" cy="474.7" r="1.9000000000000001" fill="#0C4A6E"/>
<circle cx="537.2" cy="485.4" r="1.9000000000000001" fill="#0C4A6E"/>
<circle cx="542.6" cy="485.4" r="1.9000000000000001" fill="#0C4A6E"/>
  <text x="543.89" y="515.42" text-anchor="middle" font-family="Inter, 'Segoe UI', -apple-system, BlinkMacSystemFont, sans-serif" font-size="10" font-weight="500" fill="#1A202C">OpenAI API</text>
</g>
<g class="system-actor" data-id="sys-google-vertex">
  <rect x="373.6" y="571.6" width="26.6" height="32.3" rx="3" fill="none" stroke="#0C4A6E" stroke-width="1.5"/>
<line x1="373.6" y1="582.4" x2="400.2" y2="582.4" stroke="#0C4A6E" stroke-width="1.1"/>
<line x1="373.6" y1="593.1" x2="400.2" y2="593.1" stroke="#0C4A6E" stroke-width="1.1"/>
<circle cx="380.2" cy="577.0" r="1.9000000000000001" fill="#0C4A6E"/>
<circle cx="385.6" cy="577.0" r="1.9000000000000001" fill="#0C4A6E"/>
<circle cx="380.2" cy="587.8" r="1.9000000000000001" fill="#0C4A6E"/>
<circle cx="385.6" cy="587.8" r="1.9000000000000001" fill="#0C4A6E"/>
  <text x="386.9" y="617.75" text-anchor="middle" font-family="Inter, 'Segoe UI', -apple-system, BlinkMacSystemFont, sans-serif" font-size="10" font-weight="500" fill="#1A202C">Google Vertex AI</text>
</g>
<g class="system-actor" data-id="sys-fal">
  <rect x="311.0" y="738.8" width="26.6" height="32.3" rx="3" fill="none" stroke="#0C4A6E" stroke-width="1.5"/>
<line x1="311.0" y1="749.6" x2="337.6" y2="749.6" stroke="#0C4A6E" stroke-width="1.1"/>
<line x1="311.0" y1="760.3" x2="337.6" y2="760.3" stroke="#0C4A6E" stroke-width="1.1"/>
<circle cx="317.6" cy="744.2" r="1.9000000000000001" fill="#0C4A6E"/>
<circle cx="322.9" cy="744.2" r="1.9000000000000001" fill="#0C4A6E"/>
<circle cx="317.6" cy="754.9" r="1.9000000000000001" fill="#0C4A6E"/>
<circle cx="322.9" cy="754.9" r="1.9000000000000001" fill="#0C4A6E"/>
  <text x="324.28" y="784.9499999999999" text-anchor="middle" font-family="Inter, 'Segoe UI', -apple-system, BlinkMacSystemFont, sans-serif" font-size="10" font-weight="500" fill="#1A202C">FAL.ai</text>
</g>
<g class="system-actor" data-id="sys-recraft">
  <rect x="384.8" y="889.5" width="26.6" height="32.3" rx="3" fill="none" stroke="#0C4A6E" stroke-width="1.5"/>
<line x1="384.8" y1="900.3" x2="411.4" y2="900.3" stroke="#0C4A6E" stroke-width="1.1"/>
<line x1="384.8" y1="911.0" x2="411.4" y2="911.0" stroke="#0C4A6E" stroke-width="1.1"/>
<circle cx="391.5" cy="894.9" r="1.9000000000000001" fill="#0C4A6E"/>
<circle cx="396.8" cy="894.9" r="1.9000000000000001" fill="#0C4A6E"/>
<circle cx="391.5" cy="905.6" r="1.9000000000000001" fill="#0C4A6E"/>
<circle cx="396.8" cy="905.6" r="1.9000000000000001" fill="#0C4A6E"/>
  <text x="398.13" y="935.6399999999999" text-anchor="middle" font-family="Inter, 'Segoe UI', -apple-system, BlinkMacSystemFont, sans-serif" font-size="10" font-weight="500" fill="#1A202C">Recraft API</text>
</g>
<g class="system-actor" data-id="sys-matplotlib">
  <rect x="392.9" y="1129.1" width="26.6" height="32.3" rx="3" fill="none" stroke="#0C4A6E" stroke-width="1.5"/>
<line x1="392.9" y1="1139.9" x2="419.5" y2="1139.9" stroke="#0C4A6E" stroke-width="1.1"/>
<line x1="392.9" y1="1150.7" x2="419.5" y2="1150.7" stroke="#0C4A6E" stroke-width="1.1"/>
<circle cx="399.5" cy="1134.5" r="1.9000000000000001" fill="#0C4A6E"/>
<circle cx="404.9" cy="1134.5" r="1.9000000000000001" fill="#0C4A6E"/>
<circle cx="399.5" cy="1145.3" r="1.9000000000000001" fill="#0C4A6E"/>
<circle cx="404.9" cy="1145.3" r="1.9000000000000001" fill="#0C4A6E"/>
  <text x="406.18" y="1175.3" text-anchor="middle" font-family="Inter, 'Segoe UI', -apple-system, BlinkMacSystemFont, sans-serif" font-size="10" font-weight="500" fill="#1A202C">Matplotlib</text>
</g>
<g class="system-actor" data-id="sys-mermaid-cli">
  <rect x="365.8" y="200.3" width="26.6" height="32.3" rx="3" fill="none" stroke="#0C4A6E" stroke-width="1.5"/>
<line x1="365.8" y1="211.1" x2="392.4" y2="211.1" stroke="#0C4A6E" stroke-width="1.1"/>
<line x1="365.8" y1="221.9" x2="392.4" y2="221.9" stroke="#0C4A6E" stroke-width="1.1"/>
<circle cx="372.5" cy="205.7" r="1.9000000000000001" fill="#0C4A6E"/>
<circle cx="377.8" cy="205.7" r="1.9000000000000001" fill="#0C4A6E"/>
<circle cx="372.5" cy="216.5" r="1.9000000000000001" fill="#0C4A6E"/>
<circle cx="377.8" cy="216.5" r="1.9000000000000001" fill="#0C4A6E"/>
  <text x="379.11" y="246.5" text-anchor="middle" font-family="Inter, 'Segoe UI', -apple-system, BlinkMacSystemFont, sans-serif" font-size="10" font-weight="500" fill="#1A202C">Mermaid CLI</text>
</g>
<g class="system-actor" data-id="sys-vega-cli">
  <rect x="154.5" y="295.7" width="26.6" height="32.3" rx="3" fill="none" stroke="#0C4A6E" stroke-width="1.5"/>
<line x1="154.5" y1="306.4" x2="181.1" y2="306.4" stroke="#0C4A6E" stroke-width="1.1"/>
<line x1="154.5" y1="317.2" x2="181.1" y2="317.2" stroke="#0C4A6E" stroke-width="1.1"/>
<circle cx="161.2" cy="301.0" r="1.9000000000000001" fill="#0C4A6E"/>
<circle cx="166.5" cy="301.0" r="1.9000000000000001" fill="#0C4A6E"/>
<circle cx="161.2" cy="311.8" r="1.9000000000000001" fill="#0C4A6E"/>
<circle cx="166.5" cy="311.8" r="1.9000000000000001" fill="#0C4A6E"/>
  <text x="167.85" y="341.80999999999995" text-anchor="middle" font-family="Inter, 'Segoe UI', -apple-system, BlinkMacSystemFont, sans-serif" font-size="10" font-weight="500" fill="#1A202C">Vega-Lite CLI</text>
</g>
<g class="system-actor" data-id="sys-claude-vision">
  <rect x="887.9" y="1251.1" width="26.6" height="32.3" rx="3" fill="none" stroke="#0C4A6E" stroke-width="1.5"/>
<line x1="887.9" y1="1261.9" x2="914.5" y2="1261.9" stroke="#0C4A6E" stroke-width="1.1"/>
<line x1="887.9" y1="1272.7" x2="914.5" y2="1272.7" stroke="#0C4A6E" stroke-width="1.1"/>
<circle cx="894.5" cy="1256.5" r="1.9000000000000001" fill="#0C4A6E"/>
<circle cx="899.8" cy="1256.5" r="1.9000000000000001" fill="#0C4A6E"/>
<circle cx="894.5" cy="1267.3" r="1.9000000000000001" fill="#0C4A6E"/>
<circle cx="899.8" cy="1267.3" r="1.9000000000000001" fill="#0C4A6E"/>
  <text x="901.15" y="1297.3" text-anchor="middle" font-family="Inter, 'Segoe UI', -apple-system, BlinkMacSystemFont, sans-serif" font-size="10" font-weight="500" fill="#1A202C">Claude Vision API</text>
</g>
  <!-- External Services -->
<g class="legend" transform="translate(1396,1393)">
  <rect x="0" y="0" width="340" height="130" rx="8" fill="white" stroke="#E5E7EB" stroke-width="1"/>
  <text x="12" y="18" font-family="Inter, 'Segoe UI', -apple-system, BlinkMacSystemFont, sans-serif" font-size="11" font-weight="700" fill="#1A202C">Legend</text>
  <rect x="12" y="36" width="16" height="11" rx="3" fill="#F8F9FA" stroke="#2C5282" stroke-width="1.5"/>
  <text x="34" y="45" font-family="Inter, 'Segoe UI', -apple-system, BlinkMacSystemFont, sans-serif" font-size="9" fill="#475569">Business Service</text>
  <rect x="12" y="54" width="16" height="11" rx="3" fill="#F3E8FF" stroke="#6B21A8" stroke-width="1.5"/>
  <text x="34" y="63" font-family="Inter, 'Segoe UI', -apple-system, BlinkMacSystemFont, sans-serif" font-size="9" fill="#475569">AI Persona</text>
  <circle cx="20" cy="75" r="3" fill="none" stroke="#92400E" stroke-width="1"/>
  <line x1="20" y1="78" x2="20" y2="84" stroke="#92400E" stroke-width="1"/>
  <text x="34" y="81" font-family="Inter, 'Segoe UI', -apple-system, BlinkMacSystemFont, sans-serif" font-size="9" fill="#475569">Human Actor</text>
  <rect x="14" y="90" width="12" height="10" rx="1.5" fill="none" stroke="#0C4A6E" stroke-width="1"/>
  <text x="34" y="99" font-family="Inter, 'Segoe UI', -apple-system, BlinkMacSystemFont, sans-serif" font-size="9" fill="#475569">System</text>
  <rect x="12" y="108" width="16" height="11" rx="3" fill="white" stroke="#94A3B8" stroke-width="1" stroke-dasharray="3,2"/>
  <text x="34" y="117" font-family="Inter, 'Segoe UI', -apple-system, BlinkMacSystemFont, sans-serif" font-size="9" fill="#475569">External Service</text>
  <line x1="165" y1="41" x2="187" y2="41" stroke="#2C5282" stroke-width="2"/>
  <path d="M 183 38 L 187 41 L 183 44" fill="none" stroke="#2C5282" stroke-width="1.2"/>
  <text x="193" y="45" font-family="Inter, 'Segoe UI', -apple-system, BlinkMacSystemFont, sans-serif" font-size="9" fill="#475569">Invocation</text>
  <line x1="165" y1="59" x2="187" y2="59" stroke="#059669" stroke-width="2"/>
  <path d="M 183 56 L 187 59 L 183 62" fill="none" stroke="#059669" stroke-width="1.2"/>
  <text x="193" y="63" font-family="Inter, 'Segoe UI', -apple-system, BlinkMacSystemFont, sans-serif" font-size="9" fill="#475569">Data Flow</text>
  <line x1="165" y1="77" x2="187" y2="77" stroke="#DC2626" stroke-width="2" stroke-dasharray="5,3"/>
  <path d="M 183 74 L 187 77 L 183 80" fill="none" stroke="#DC2626" stroke-width="1.2"/>
  <text x="193" y="81" font-family="Inter, 'Segoe UI', -apple-system, BlinkMacSystemFont, sans-serif" font-size="9" fill="#475569">Escalation</text>
  <line x1="165" y1="95" x2="187" y2="95" stroke="#15803D" stroke-width="2" stroke-dasharray="2,3"/>
  <path d="M 183 92 L 187 95 L 183 98" fill="none" stroke="#15803D" stroke-width="1.2"/>
  <text x="193" y="99" font-family="Inter, 'Segoe UI', -apple-system, BlinkMacSystemFont, sans-serif" font-size="9" fill="#475569">Support</text>
  <line x1="165" y1="113" x2="187" y2="113" stroke="#94A3B8" stroke-width="2" stroke-dasharray="4,3"/>
  <path d="M 183 110 L 187 113 L 183 116" fill="none" stroke="#94A3B8" stroke-width="1.2"/>
  <text x="193" y="117" font-family="Inter, 'Segoe UI', -apple-system, BlinkMacSystemFont, sans-serif" font-size="9" fill="#475569">External</text>
</g>
</svg>